Simulation
nRows=27
nColumns=15
endheader
time  TH_x TH_y TH_z SC_y  SC_z  SC_x  AC_y  AC_z  AC_x  GH_y  GH_z  GH_yy  EL_x  PS_y
4.133333333333333  0.000000  0.000000  0.000000  -23.532425058286243  5.39781137720011  20.39323422767213  60.90288630272184  8.48215036057743  2.0189121628282276  50.53753158115054  58.502828478291796  -52.015354121207686  10.964513124934394  120.000000
4.173856209150326  0.000000  0.000000  0.000000  -23.557528073164743  5.114887122826451  20.145469478884884  61.192038414047964  8.253116639725585  1.709900930836621  51.43565344705458  58.367359342785925  -53.01012374854252  10.603739575228266  120.000000
4.2143790849673195  0.000000  0.000000  0.000000  -23.629383203831928  4.8327866075883446  19.911300667285772  61.511802175729144  8.04442375200094  1.4469596922373897  52.38907238158671  58.25005856261441  -53.97320434339073  10.260101417984982  120.000000
4.254901960784313  0.000000  0.000000  0.000000  -23.749718327372157  4.555637021233098  19.703056183755937  61.86213388274784  7.8604549172133655  1.2338519192526614  53.38395210820665  58.15396023691792  -54.89299848767549  9.941877534827325  120.000000
4.295424836601307  0.000000  0.000000  0.000000  -23.914946396177896  4.288310804794769  19.529695069701194  62.240708261583926  7.70189448568189  1.0716901888016843  54.40488331574616  58.08130747493482  -55.763003712233754  9.655319862206204  120.000000
4.3359477124183  0.000000  0.000000  0.000000  -24.11632926449388  4.036262486916403  19.39636323174008  62.642285565372795  7.565740093243619  0.9592660587841497  55.43490307678478  58.03330501309814  -56.58071160995268  9.404640407274934  120.000000
4.376470588235294  0.000000  0.000000  0.000000  -24.341525136748945  3.804793387915296  19.304802595761547  63.05879727767303  7.446395668212611  0.8931168685958194  56.456107800737584  58.00967411780599  -57.34552525494766  9.192968936381146  120.000000
4.416993464052287  0.000000  0.000000  0.000000  -24.576662070048386  3.598438257755497  19.25437932461726  63.47989024404764  7.337032479562386  0.8677010836206673  57.450668264051984  58.00826612865148  -58.056836733008765  9.023157059420841  120.000000
4.45751633986928  0.000000  0.000000  0.000000  -24.80820063928079  3.420476994756051  19.243136831818003  63.893908666360964  7.230852778614581  0.8757496698741962  58.4017624733719  58.02495470390054  -58.71279899011865  8.897992217606575  120.000000
4.498039215686274  0.000000  0.000000  0.000000  -25.024438521916046  3.2726433649539284  19.268561982361827  64.2891436360959  7.1219801811734715  0.908804275140675  59.29451055575769  58.053896915085794  -59.31010480130016  8.820120137063572  120.000000
4.538562091503268  0.000000  0.000000  0.000000  -25.216546689210507  3.1549874766461166  19.32803495773179  64.65524311855155  7.006000469926763  0.9579537220277026  60.11693173959447  58.0882145288986  -59.84462842914464  8.791309992009943  120.000000
4.579084967320261  0.000000  0.000000  0.000000  -25.37918544348956  3.0659248565675425  19.419052476442122  64.98452658081231  6.880248848986708  1.0147268160157996  60.86090765474862  58.121011368225446  -60.312768212721664  8.811135248719987  120.000000
4.6196078431372545  0.000000  0.000000  0.000000  -25.51073662415156  3.002410346217512  19.5392544916142  65.27294459448918  6.74393475248817  1.0719031959534582  61.52280087973819  58.14652056649448  -60.712931403891275  8.875696052371607  120.000000
4.660130718954248  0.000000  0.000000  0.000000  -25.61305201979542  2.9602793952363156  19.686307084262502  65.52028358371776  6.59801550978017  1.124008792146707  62.10337750247127  58.16109154155482  -61.04675200796004  8.977246629535646  120.000000
4.700653594771241  0.000000  0.000000  0.000000  -25.690756727600142  2.934830485185653  19.857495881191433  65.72953289145828  6.444868483312318  1.167541669811302  62.60702451787667  58.163679142187725  -61.31968281681464  9.105058274023346  120.000000
4.741176470588234  0.000000  0.000000  0.000000  -25.750333272855098  2.9212810313508117  20.04917291413485  65.90585199238903  6.287859146561904  1.2007768209676937  63.04066720679285  58.15586235976028  -61.54083023957994  9.246868033468997  120.000000
4.781699346405228  0.000000  0.000000  0.000000  -25.799141712829204  2.9152973511682396  20.25681000580458  66.05543281011644  6.13053897660646  1.223365209056019  63.41260493480164  58.141369244760135  -61.72209851275092  9.390093417706211  120.000000
4.822222222222222  0.000000  0.000000  0.000000  -25.844412072839006  2.913418560020067  20.47538192962248  66.18444419401114  5.976147366478439  1.2360202829555746  63.73124012318658  58.125159931906424  -61.87670413900164  9.522549584245635  120.000000
4.862745098039215  0.000000  0.000000  0.000000  -25.892193541910185  2.913046429204531  20.699616885280108  66.29825501675857  5.827626157940651  1.2400650762771128  64.00370811215551  58.11213358520347  -62.0171585435972  9.63335780974242  120.000000
4.903267973856209  0.000000  0.000000  0.000000  -25.946344896698104  2.9123916419751694  20.924132037612868  66.4006667080884  5.687535746745854  1.2369152784555457  64.23473888591128  58.105482906969094  -62.15300327488122  9.714588101852991  120.000000
4.943790849673202  0.000000  0.000000  0.000000  -26.007791281615585  2.910534726017024  21.143273249505956  66.49320295897033  5.558031435920447  1.2277248717549458  64.42593788655822  58.10516999310579  -62.288870606392024  9.762885070973427  120.000000
4.984313725490195  0.000000  0.000000  0.000000  -26.07433307452664  2.9074678814232264  21.350967382993822  66.57476108997989  5.440933737940035  1.2132047512968394  64.57564695632944  58.1071716676819  -62.42353820464152  9.779892015796445  120.000000
5.024836601307189  0.000000  0.000000  0.000000  -26.141114329536673  2.903943919879861  21.540784028213817  66.64177715098755  5.337821386040061  1.1934425255081016  64.6794102952417  58.10388404727061  -62.55015798103215  9.771255046550491  120.000000
5.065359477124183  0.000000  0.000000  0.000000  -26.201471171817037  2.9013105465962528  21.706044644801732  66.6886616675337  5.250141544451694  1.1678901568362632  64.73069982921488  58.085388982260014  -62.657262270801276  9.745114532719906  120.000000
5.105882352941176  0.000000  0.000000  0.000000  -26.247830142141677  2.901507599540053  21.83999460348635  66.70826514362122  5.179327463257089  1.1355667512157042  64.7215628828745  58.04120148353138  -62.72991875246045  9.710822622276785  120.000000
5.146405228758169  0.000000  0.000000  0.000000  -26.272569921469653  2.9071363137486386  21.936132369853603  66.69246849084628  5.127049556625049  1.0955424069550335  64.64291574673837  57.96213740864829  -62.75057851438412  9.678012596065388  120.000000
5.186928104575163  0.000000  0.000000  0.000000  -26.2688860786359  2.9215268423120957  21.98890534130781  66.63295870897927  5.095624569266546  1.047619139219958  64.4845804551512  57.84212957909205  -62.69942675160072  9.65564708869222  120.000000
